<?xml version="1.0" encoding="UTF-8"?>
<svg width="236px" height="106px" viewBox="0 0 236 106" version="1.1" xmlns="http://www.w3.org/2000/svg" xmlns:xlink="http://www.w3.org/1999/xlink">
    <!-- Generator: Sketch 47.1 (45422) - http://www.bohemiancoding.com/sketch -->
    <title>react-logo</title>
    <desc>Created with Sketch.</desc>
    <defs></defs>
    <g id="Landing-Page" stroke="none" stroke-width="1" fill="none" fill-rule="evenodd" opacity="0.0599999987">
        <g transform="translate(-860.000000, -4310.000000)" id="CTA-Block">
            <g transform="translate(0.000000, 3640.000000)">
                <g id="Footer">
                    <g id="react-logo" transform="translate(865.000000, 676.000000)">
                        <ellipse id="Oval" fill="#FFFFFF" fill-rule="nonzero" cx="113" cy="99.2989199" rx="21.0747612" ry="20.9816725"></ellipse>
                        <path d="M113,56.6421951 C141.290046,56.6421951 167.574299,60.6845993 187.388475,67.4727875 C211.262989,75.654669 225.944284,88.0592334 225.944284,99.2919861 C225.944284,110.996237 210.385455,124.177387 184.748906,132.629686 C165.366533,139.022648 139.855347,142.364739 113,142.364739 C85.4621263,142.364739 59.393775,139.230662 39.7885362,132.560348 C14.987735,124.121916 0.048751926,110.774355 0.048751926,99.2919861 C0.048751926,88.1493728 14.0684129,75.8418815 37.6086287,67.6738676 C57.4994145,60.7747387 84.4313713,56.6421951 113,56.6421951 L113,56.6421951 Z" id="Shape" stroke="#FFFFFF" stroke-width="10.0685039"></path>
                        <path d="M75.7047766,78.0953659 C89.8358706,53.695331 106.488136,33.0464808 122.297689,19.35223 C141.345763,2.84979094 159.474515,-3.61250871 169.245794,1.9969338 C179.427982,7.84212544 183.126163,27.8461324 177.672912,54.1876307 C173.549892,74.1014983 163.715932,97.7665505 150.295223,120.932369 C136.540216,144.680627 120.786379,165.599895 105.192727,179.176272 C85.4621263,196.351289 66.3792296,202.563972 56.3920493,196.829721 C46.6973806,191.261882 42.9922342,173.025993 47.6375963,148.639826 C51.5656086,128.018711 61.4274268,102.73115 75.7047766,78.0953659 Z" id="Shape" stroke="#FFFFFF" stroke-width="10.0685039"></path>
                        <path d="M75.7395994,120.980906 C61.566718,96.6016725 51.9138367,71.9312195 47.8883205,51.4557143 C43.0409861,26.7852613 46.4675501,7.91839721 56.2318644,2.29508711 C66.4070878,-3.57090592 85.6571341,3.23114983 105.854361,21.0856794 C121.127643,34.585784 136.804869,54.8879443 150.260401,78.0329617 C164.057196,101.760418 174.399569,125.792962 178.41812,146.01885 C183.509214,171.618432 179.386194,191.178676 169.405978,196.926794 C159.718274,202.508502 142.000431,196.600906 123.098613,180.410488 C107.13584,166.730105 90.051772,145.595889 75.7395994,120.980906 Z" id="Shape" stroke="#FFFFFF" stroke-width="10.0685039"></path>
                    </g>
                </g>
            </g>
        </g>
    </g>
</svg>